<?xml version="1.0" encoding="UTF-8"?>
<svg id="Layer_1" data-name="Layer 1" xmlns="http://www.w3.org/2000/svg" version="1.1" viewBox="0 0 300 90">
  <defs>
    <style>
      .cls-1 {
        fill: #003a70;
      }

      .cls-1, .cls-2 {
        stroke-width: 0px;
      }

      .cls-2 {
        fill: #5585e7;
      }
    </style>
  </defs>
  <g>
    <path class="cls-1" d="M275.3,36l5.7-13.4,5.7,13.4h-11.4ZM263.8,49.4h6l3.4-8.1h15.6l3.4,8.1h6.1l-14.5-33.8h-5.4l-14.6,33.8ZM234.6,32.4v-11.2h8.5c4.3,0,6.9,2,6.9,5.6h0c0,3.5-2.6,5.7-6.8,5.7h-8.6ZM228.8,49.4h5.8v-11.7h7.3l8.1,11.7h6.8l-8.9-12.7c2.3-.5,4.3-1.8,5.8-3.6,1.4-1.9,2.2-4.2,2.1-6.5h0c.1-2.8-.9-5.4-2.7-7.3-2.6-2.3-6-3.5-9.5-3.4h-14.7v33.5h-.1ZM193.5,49.4h24.8v-5.3h-18.9v-9h16.6v-5.3h-16.6v-8.7h18.6v-5.3h-24.5v33.6ZM158.7,44v-22.8h6.5c1.5-.1,3,.1,4.4.7,1.4.5,2.7,1.4,3.8,2.4,1.1,1.1,1.9,2.4,2.5,3.8s.8,3,.8,4.5h0c.1,1.6-.2,3.1-.8,4.6-.6,1.4-1.4,2.7-2.5,3.8s-2.4,1.9-3.8,2.4c-1.4.5-2.9.7-4.4.6h-6.5ZM152.9,49.4h12.3c10.4,0,17.6-7.3,17.6-16.8h0c0-9.5-7.2-16.8-17.6-16.8h-12.3v33.6ZM134.5,49.4h5.8V15.8h-5.8v33.6ZM106,49.6h5.1l13.7-33.8h-6.3l-9.9,25.8-10-25.8h-6.4l13.8,33.8Z"/>
    <path class="cls-2" d="M254.6,79.2h2.1v-8.8h11.1v8.8h2.2v-19.5h-2.2v8.7h-11.1v-8.7h-2.2v19.5ZM233.6,79.2h2.2v-17.5h6.5v-2h-15.1v2h6.5v17.5h0ZM206.1,79.2h13v-2h-10.8v-17.5h-2.2v19.5ZM179.9,72.1l4.4-10,4.4,10h-8.8ZM174.6,79.2h2.2l2.3-5.2h10.5l2.3,5.2h2.3l-8.8-19.7h-2l-8.8,19.7ZM149.6,79.2h14.1v-2h-11.9v-6.8h10.5v-2h-10.5v-6.7h11.8v-2h-13.9v19.5h-.1ZM120.5,79.2h2.2v-8.8h11.1v8.8h2.2v-19.5h-2.2v8.7h-11.1v-8.7h-2.2v19.5Z"/>
  </g>
  <path class="cls-1" d="M42.5,64.1c-1,0-1.9-.4-2.6-1.1l-23.7-23.6,5.3-5.3,21.1,21,20.8-20.8,5.3,5.3-23.4,23.4c-.7.7-1.7,1.1-2.6,1.1Z"/>
  <path class="cls-1" d="M42.4,85.6c-1,0-1.9-.4-2.6-1.1L2.8,47.5c-.7-.7-1.1-1.7-1.1-2.6,0-1,.4-1.9,1.1-2.6l8.2-8.1,5.2,5.3-5.5,5.5,31.7,31.7,31.6-31.5-5.5-5.5,5.2-5.3,8.2,8.1c.7.7,1.1,1.6,1.1,2.6,0,1-.4,1.9-1.1,2.6l-36.9,36.8c-.7.7-1.7,1.1-2.6,1.1Z"/>
  <path class="cls-2" d="M63.3,34.3l-21.1-21-20.8,20.8-5.3-5.3L39.6,5.5c1.5-1.5,3.8-1.5,5.3,0l23.7,23.6-5.3,5.3Z"/>
</svg>